<svg width="250" height="250" viewBox="0 0 250 250" fill="none" xmlns="http://www.w3.org/2000/svg">
<path d="M121.173 1.58513C123.623 0.570187 126.377 0.570187 128.827 1.58513L209.562 35.0265C212.012 36.0415 213.959 37.9882 214.973 40.4385L248.415 121.173C249.43 123.623 249.43 126.377 248.415 128.827L214.973 209.562C213.959 212.012 212.012 213.959 209.562 214.973L128.827 248.415C126.377 249.43 123.623 249.43 121.173 248.415L40.4385 214.973C37.9882 213.959 36.0415 212.012 35.0265 209.562L1.58513 128.827C0.570187 126.377 0.570187 123.623 1.58513 121.173L35.0265 40.4385C36.0415 37.9882 37.9882 36.0415 40.4385 35.0265L121.173 1.58513Z" fill="#13263C"/>
</svg>
